# xmcd
#
# Track frame offsets: 
#        150
#        14767
#        30517
#        47905
#        61805
#        76072
#        90520
#        114360
#        132337
#        148667
#        163135
#        175857
#        195920
#        213522
#
# Disc length: 3036 seconds
#
# Revision: 2
# Processed by: cddbd v1.4PL0 Copyright (c) Steve Scherf et al.
# Submitted via: ExactAudioCopy v0.90b3
#
DISCID=b70bda0e
DTITLE=Various Artist - Blues on the Loose
DYEAR=1900
DGENRE=Blues
TTITLE0=BIG JOE MAHER - STATESBORO BLUES
TTITLE1=BIG JOE MAHER - JUICE ON THE LOOSE
TTITLE2=THE NIGHTHAWKS - WALKING BY MYSELF
TTITLE3=CATFISH HODGE - EVERYBODY COME JOIN THE BAND
TTITLE4=JOE STANLEY - FLAMINGO
TTITLE5=SPELLBOUND - WINE, WOMEN, AND SONG
TTITLE6=TOM PRINCIPATO - NEVER MAKE YOUR MOVE TOO SOON
TTITLE7=LYNN AUGUST - IT'S MY SOUL
TTITLE8=KID RAMOS - BABY LOOK AT YOU
TTITLE9=ROBERT EALEY - SEE ABOUT ME
TTITLE10=SPELLBOUND - HELLO MY DARLIN'
TTITLE11=GARY PRIMICH - MY HOME
TTITLE12=ROBERT EALEY - ELLOISE
TTITLE13=BIG JOE MAHER - ROUTE 66
EXTD=
EXTT0=
EXTT1=
EXTT2=
EXTT3=
EXTT4=
EXTT5=
EXTT6=
EXTT7=
EXTT8=
EXTT9=
EXTT10=
EXTT11=
EXTT12=
EXTT13=
PLAYORDER=
